<svg width="1440" height="900" viewBox="0 0 1440 900" fill="none" xmlns="http://www.w3.org/2000/svg">
  <rect width="1440" height="900" fill="#080B0F"/>
  <rect x="32" y="32" width="1376" height="836" fill="#0D1117" stroke="#24313A"/>
  <rect x="32" y="32" width="1376" height="64" fill="#0A0E13" stroke="#24313A"/>
  <text x="64" y="72" fill="#E9F1F1" font-family="Inter, Arial, sans-serif" font-size="22" font-weight="700">Meow Ops / Loop Ops</text>
  <text x="1180" y="70" fill="#7ED7C1" font-family="JetBrains Mono, monospace" font-size="13">DEMO DATA</text>
  <rect x="1268" y="52" width="100" height="24" fill="#12231F" stroke="#276F61"/>
  <text x="1281" y="69" fill="#7ED7C1" font-family="JetBrains Mono, monospace" font-size="11">READ ONLY</text>

  <rect x="64" y="132" width="260" height="148" fill="#121821" stroke="#31404A"/>
  <text x="86" y="164" fill="#7ED7C1" font-family="JetBrains Mono, monospace" font-size="12">WORKSPACE</text>
  <text x="86" y="199" fill="#F3F6F2" font-family="Inter, Arial, sans-serif" font-size="28" font-weight="700">Demo Registry</text>
  <text x="86" y="230" fill="#AAB5B8" font-family="Inter, Arial, sans-serif" font-size="15">Imported from a sample workbook.</text>
  <text x="86" y="257" fill="#E6B860" font-family="JetBrains Mono, monospace" font-size="12">production writes disabled</text>

  <rect x="64" y="308" width="260" height="96" fill="#0F141B" stroke="#26343F"/>
  <text x="86" y="340" fill="#AAB5B8" font-family="JetBrains Mono, monospace" font-size="12">CURRENT LOOP</text>
  <text x="86" y="373" fill="#F3F6F2" font-family="Inter, Arial, sans-serif" font-size="24" font-weight="700">Release Readiness</text>
  <circle cx="288" cy="356" r="10" fill="#7ED7C1"/>

  <g font-family="Inter, Arial, sans-serif" font-size="14">
    <rect x="64" y="432" width="76" height="64" fill="#111923" stroke="#26343F"/>
    <text x="86" y="461" fill="#AAB5B8">Lanes</text>
    <text x="88" y="484" fill="#F3F6F2" font-size="24" font-weight="700">4</text>
    <rect x="156" y="432" width="76" height="64" fill="#111923" stroke="#26343F"/>
    <text x="176" y="461" fill="#AAB5B8">Nodes</text>
    <text x="180" y="484" fill="#F3F6F2" font-size="24" font-weight="700">18</text>
    <rect x="248" y="432" width="76" height="64" fill="#111923" stroke="#26343F"/>
    <text x="265" y="461" fill="#AAB5B8">Due</text>
    <text x="273" y="484" fill="#E6B860" font-size="24" font-weight="700">7</text>
  </g>

  <rect x="372" y="132" width="972" height="604" fill="#0A0F15" stroke="#22303A"/>
  <text x="408" y="172" fill="#AAB5B8" font-family="JetBrains Mono, monospace" font-size="12">CANVAS</text>
  <text x="408" y="202" fill="#F3F6F2" font-family="Inter, Arial, sans-serif" font-size="28" font-weight="700">Loop Map</text>

  <defs>
    <filter id="glow" x="-20%" y="-20%" width="140%" height="140%">
      <feGaussianBlur stdDeviation="8" result="blur"/>
      <feMerge>
        <feMergeNode in="blur"/>
        <feMergeNode in="SourceGraphic"/>
      </feMerge>
    </filter>
  </defs>

  <g stroke="#31404A" stroke-width="2">
    <path d="M858 286 C745 316 700 366 646 424"/>
    <path d="M858 286 C812 374 813 462 782 548"/>
    <path d="M858 286 C957 337 1006 394 1062 456"/>
    <path d="M858 286 C1011 294 1098 326 1184 388"/>
  </g>

  <rect x="752" y="230" width="212" height="112" rx="0" fill="#13251F" stroke="#3AA98F" filter="url(#glow)"/>
  <text x="790" y="269" fill="#7ED7C1" font-family="JetBrains Mono, monospace" font-size="12">COORDINATOR</text>
  <text x="790" y="302" fill="#F3F6F2" font-family="Inter, Arial, sans-serif" font-size="24" font-weight="700">Loop Captain</text>
  <text x="790" y="326" fill="#AAB5B8" font-family="Inter, Arial, sans-serif" font-size="13">owns handoff health</text>

  <g font-family="Inter, Arial, sans-serif">
    <rect x="510" y="400" width="204" height="88" fill="#121821" stroke="#2E4450"/>
    <text x="532" y="431" fill="#7ED7C1" font-family="JetBrains Mono, monospace" font-size="12">RESEARCH</text>
    <text x="532" y="462" fill="#F3F6F2" font-size="21" font-weight="700">Signal Lane</text>
    <circle cx="680" cy="432" r="9" fill="#7ED7C1"/>

    <rect x="696" y="528" width="204" height="88" fill="#121821" stroke="#2E4450"/>
    <text x="718" y="559" fill="#7ED7C1" font-family="JetBrains Mono, monospace" font-size="12">BUILD</text>
    <text x="718" y="590" fill="#F3F6F2" font-size="21" font-weight="700">Change Lane</text>
    <circle cx="866" cy="560" r="9" fill="#E6B860"/>

    <rect x="980" y="436" width="204" height="88" fill="#121821" stroke="#2E4450"/>
    <text x="1002" y="467" fill="#7ED7C1" font-family="JetBrains Mono, monospace" font-size="12">REVIEW</text>
    <text x="1002" y="498" fill="#F3F6F2" font-size="21" font-weight="700">Proof Lane</text>
    <circle cx="1150" cy="468" r="9" fill="#E6B860"/>

    <rect x="1112" y="360" width="204" height="88" fill="#121821" stroke="#2E4450"/>
    <text x="1134" y="391" fill="#7ED7C1" font-family="JetBrains Mono, monospace" font-size="12">OPS</text>
    <text x="1134" y="422" fill="#F3F6F2" font-size="21" font-weight="700">Release Lane</text>
    <circle cx="1282" cy="392" r="9" fill="#EC7D6C"/>
  </g>

  <g stroke="#3A4A55" stroke-width="1.5" font-family="Inter, Arial, sans-serif" font-size="13">
    <rect x="438" y="568" width="154" height="52" fill="#0E151D"/>
    <text x="458" y="599" fill="#AAB5B8">Market read</text>
    <rect x="560" y="640" width="154" height="52" fill="#0E151D"/>
    <text x="580" y="671" fill="#AAB5B8">Source check</text>
    <rect x="840" y="648" width="154" height="52" fill="#0E151D"/>
    <text x="860" y="679" fill="#AAB5B8">Build agent</text>
    <rect x="1016" y="596" width="154" height="52" fill="#0E151D"/>
    <text x="1036" y="627" fill="#AAB5B8">Eval gate</text>
    <rect x="1194" y="544" width="154" height="52" fill="#0E151D"/>
    <text x="1214" y="575" fill="#AAB5B8">Ship note</text>
  </g>

  <rect x="372" y="764" width="972" height="72" fill="#0A0E13" stroke="#22303A"/>
  <text x="408" y="807" fill="#AAB5B8" font-family="Inter, Arial, sans-serif" font-size="15">Status is computed from evidence, last verification, and open blockers. This is sample data.</text>
</svg>
